<svg xmlns="http://www.w3.org/2000/svg" viewBox="0 0 500 500"><g id="freepik--cactus-2--inject-2"><path d="M389.35,445.26C392.13,437,398.3,427.62,405,422c-5.4.36-10.19-4.88-10.16-10.29s4.14-10.29,9.23-12.14A17.89,17.89,0,0,1,406,368.19c-6.43-4.88-13.28-10.38-15.21-18.22l-6.51.7s-15.69,62.51-15.69,63.27,8.1,31.32,8.1,31.32Z" style="fill:#263238"></path><g style="opacity:0.1"><path d="M389.35,445.26C392.13,437,398.3,427.62,405,422c-5.4.36-10.19-4.88-10.16-10.29s4.14-10.29,9.23-12.14A17.89,17.89,0,0,1,406,368.19c-6.43-4.88-13.28-10.38-15.21-18.22l-6.51.7s-15.69,62.51-15.69,63.27,8.1,31.32,8.1,31.32Z"></path></g><path d="M394.76,399.18c-6.09-2-9.28-9.36-8-15.64s6.14-11.34,11.68-14.54A25.65,25.65,0,0,1,388,349.36a69,69,0,0,1-26.92-1.31,22.81,22.81,0,0,1-19.88,10.72c3.89,4.45,6.2,10.57,5.06,16.37s-6.27,10.91-12.19,11a17.5,17.5,0,0,1-1.84,30.37c9.19,3.89,12.93,18.81,13.84,28.75h39.2a33.58,33.58,0,0,1,8.89-19.13c-6-1-10.32-7.24-9.93-13.29S389.13,401.43,394.76,399.18Z" style="fill:#263238"></path><g style="opacity:0.1"><path d="M367.33,363.11c1.79,3.17,1.59,7.12.54,10.6s-2.87,6.67-4.24,10c-3.42,8.38-4,17.7-3.09,26.7s3.31,17.79,5.68,26.52c.1.37.26.79.63.87.57.13.87-.64.93-1.22L369.61,420a9.27,9.27,0,0,0-.19-4.23,16,16,0,0,0-1.66-2.81c-2.85-4.62-1.77-10.65.2-15.71s4.79-9.94,5.23-15.36c.3-3.57-.48-7.15-.41-10.74,0-2.32.44-4.64.33-7a8.75,8.75,0,0,0-2.58-6.28c-1.53-1.34-4.44-1.47-5.19.42-.69,1.73,1.07,2.41,2,4.84"></path></g><g style="opacity:0.2"><path d="M350,372.59a28.88,28.88,0,0,0-3.23-9.51,1.78,1.78,0,0,1,1.11-2.61,44.57,44.57,0,0,0,12.26-5.27,4.44,4.44,0,0,1,.12,4.93,17.92,17.92,0,0,1-3.49,3.9,32.28,32.28,0,0,0-6.58,9.12" style="fill:#fff"></path></g><path d="M342.73,360.29a51.89,51.89,0,0,1-10.49-5.09A51.46,51.46,0,0,0,343,359.33l-.29,1Z" style="fill:#263238"></path><path d="M336.06,386.23c-.47,0,.94-.28-.27,1-.16-.05-.37-.14-.53-.2-2.32-.92-4.79-1.89-7.07-2.88,1.87.56,4,1.1,5.88,1.6l1.84.48s.19,0,.07,0c-1.21,1.23.21.92-.27,1l.35-.93Z" style="fill:#263238"></path><path d="M336,387.14a15.52,15.52,0,0,1-6.73-8.32,15.07,15.07,0,0,0,7.2,7.44l-.47.88Z" style="fill:#263238"></path><path d="M334,417.09c-2.69-.12-5.5.3-8.21.19a40.53,40.53,0,0,0,4.08-.6c1.36-.23,2.7-.49,4.13-.59v1Z" style="fill:#263238"></path><path d="M333.53,417.16a21.41,21.41,0,0,1-8.09-6,20.9,20.9,0,0,0,8.43,5.11l-.34.93Z" style="fill:#263238"></path><g style="opacity:0.2"><path d="M349.76,379.55a1.75,1.75,0,0,0-2.11.37,21,21,0,0,1-6.2,4.94,3.22,3.22,0,0,0-1.81,1.64,3.27,3.27,0,0,0,.74,2.58l3.48,5.44c.58.91,1.42,2,2.53,1.67a1.71,1.71,0,0,0,1.16-1.3,4.51,4.51,0,0,0-.7-3,5.52,5.52,0,0,1-.78-2.43,4.47,4.47,0,0,1,1.84-3.17,18.84,18.84,0,0,0,2.85-2.49l0,0a2.87,2.87,0,0,0-1-4.23Z" style="fill:#fff"></path></g><g style="opacity:0.2"><path d="M390.24,398.3a4.86,4.86,0,0,0-1.56-2.16h0a2.41,2.41,0,0,0-2.36-.65c-3.82,1.13-7.09,4.23-7.08,8.78A6.76,6.76,0,0,0,380.4,408a2.41,2.41,0,0,0,.83.85,2,2,0,0,0,2.28-.73,11.36,11.36,0,0,0,1.14-2.32,7.83,7.83,0,0,1,3.11-3.41,6.7,6.7,0,0,0,2.13-1.47A2.89,2.89,0,0,0,390.24,398.3Z" style="fill:#fff"></path></g><path d="M392.2,399.23a24.81,24.81,0,0,0,10.71-6.9,25.45,25.45,0,0,1-10.37,7.84l-.34-.94Z" style="fill:#e0e0e0"></path><path d="M391.75,399.21a28.62,28.62,0,0,1,8.11,0,28.22,28.22,0,0,0-7.9,1l-.21-1Z" style="fill:#e0e0e0"></path><path d="M391.44,426.16a17.05,17.05,0,0,0,10.41-5.72,17.5,17.5,0,0,1-10.23,6.7l-.18-1Z" style="fill:#e0e0e0"></path><path d="M391.45,426.35a16.23,16.23,0,0,1,7.14,1,15.81,15.81,0,0,0-7,0l-.16-1Z" style="fill:#e0e0e0"></path><g style="opacity:0.2"><path d="M389.52,426.16l-1.36-.65a6.65,6.65,0,0,0-6.36,3,13.34,13.34,0,0,0-2,7.09,1.86,1.86,0,0,0,.47,1.58c.54.42,1.33.13,1.93-.2a17.35,17.35,0,0,0,7.21-7.78C389.9,428.25,390.23,427,389.52,426.16Z" style="fill:#fff"></path></g><g style="opacity:0.2"><path d="M393.64,366.85a7.24,7.24,0,0,0-2.5-.88l-.62.18A13.7,13.7,0,0,0,384.06,377a2.4,2.4,0,0,0,.14,1.13.94.94,0,0,0,.88.61,1.41,1.41,0,0,0,.8-.47l7.54-7a3.75,3.75,0,0,0,1.46-2.23A2.53,2.53,0,0,0,393.64,366.85Z" style="fill:#fff"></path></g><path d="M395.59,368.82a15.12,15.12,0,0,0,10.63-6.2,15.6,15.6,0,0,1-10.49,7.19l-.14-1Z" style="fill:#e0e0e0"></path><path d="M394.85,369a49.56,49.56,0,0,1,11.68,1,48.93,48.93,0,0,0-11.6,0l-.08-1Z" style="fill:#e0e0e0"></path><path d="M344.63,361.33c-4.26-2.94-6.3-7.93-7.4-12.76,1.34,4.55,3.75,9.43,7.9,11.9l-.5.86Z" style="fill:#263238"></path><g style="opacity:0.2"><path d="M346.75,408.63l-2,.09-6.8,6.69a1.31,1.31,0,0,0-.37.51c-.14.48.3.91.68,1.22a21.21,21.21,0,0,1,5.72,7.4,28.84,28.84,0,0,0,3.85-7.66A9.85,9.85,0,0,0,346.75,408.63Z" style="fill:#fff"></path></g><path d="M375.5,288.64s-10.9-.65-20.67,4c-8.74,4.14-17.57,12.71-18.71,25.78-2.21,25.35,18.89,30.26,21.87,31,0,0,1.38,2.37,12.23,3.34,0,0,5.8,2.7,11.31,1,0,0,4.22,1.82,9.53-1.08,0,0,25.4-6.17,27.74-25,2.44-19.77-11.37-31.5-22.72-35.24C396.08,292.39,385.57,287.6,375.5,288.64Z" style="fill:#FFC0AD"></path><path d="M374.22,291.6s-6.63,11.46-8,30.57c-.73,10-1.57,19.17,4,30.55,0,0-6.57-.77-10.13-10.57-4.25-11.68-2.41-30.22,2.79-39.35S374.22,291.6,374.22,291.6Z" style="opacity:0.1"></path><path d="M358,349.38S348.77,340,349.75,323c.88-15.27,5.85-26.55,19.89-32.45,0,0-16.07.87-22.72,19.66C339.07,332.34,350.31,344.6,358,349.38Z" style="opacity:0.1"></path><path d="M379.17,292.2s10.31,11.24,10.3,33.46-7.94,28.07-7.94,28.07S393,349.81,397.17,338s-.95-29.17-5.81-35.87C384.35,292.51,379.17,292.2,379.17,292.2Z" style="opacity:0.1"></path><path d="M384.1,291s20.71,5.58,21.73,30.68c1,23.41-14.41,30.74-14.41,30.74S405,347.81,408.89,336s2.86-28.2-6.45-35.71C390.69,290.79,384.1,291,384.1,291Z" style="opacity:0.1"></path><path d="M377.07,292.45a220.9,220.9,0,0,0-3.27,32.36c-.27,14.33,1,25.58,4,29.62,0,0,4.19-12.35,4.47-23.4C382.56,321.48,381.46,301.18,377.07,292.45Z" style="opacity:0.1"></path><path d="M344.72,314.34a23.68,23.68,0,0,1-5.37,1.66,23.23,23.23,0,0,0,5.16-2.11l.21.45Z" style="fill:#fff"></path><path d="M344.49,314.33a38.48,38.48,0,0,0-4.42-2.52,38.24,38.24,0,0,1,4.67,2.09l-.25.43Z" style="fill:#fff"></path><polygon points="344.37 314.16 343.47 308.01 344.86 314.07 344.37 314.16 344.37 314.16" style="fill:#fff"></polygon><path d="M358.09,326.9a23.45,23.45,0,0,1-3.73,4.22,23,23,0,0,0,3.31-4.49l.42.27Z" style="fill:#fff"></path><path d="M357.88,327a37.49,37.49,0,0,0-5.08.15,37.39,37.39,0,0,1,5.07-.65v.5Z" style="fill:#fff"></path><polygon points="357.69 326.94 353.72 322.16 358.06 326.6 357.69 326.94 357.69 326.94" style="fill:#fff"></polygon><path d="M360.69,307.79a23.43,23.43,0,0,1-5.55.93,23.24,23.24,0,0,0,5.39-1.4l.16.47Z" style="fill:#fff"></path><path d="M360.45,307.75a40.56,40.56,0,0,0-4-3.09,38.25,38.25,0,0,1,4.34,2.7l-.31.39Z" style="fill:#fff"></path><polygon points="360.36 307.57 360.29 301.36 360.86 307.54 360.36 307.57 360.36 307.57" style="fill:#fff"></polygon><path d="M374.76,319.47a22.81,22.81,0,0,1-4.68,3.11,22.54,22.54,0,0,0,4.35-3.48l.33.37Z" style="fill:#fff"></path><path d="M374.53,319.52a39.13,39.13,0,0,0-4.95-1.16,39.71,39.71,0,0,1,5.08.68l-.13.48Z" style="fill:#fff"></path><polygon points="374.37 319.4 371.76 313.76 374.82 319.17 374.37 319.4 374.37 319.4" style="fill:#fff"></polygon><path d="M389.61,323.11a23.32,23.32,0,0,1,5.14-2.27,22.92,22.92,0,0,0-4.87,2.7l-.27-.43Z" style="fill:#fff"></path><path d="M389.85,323.1a40.33,40.33,0,0,0,4.68,2,40.17,40.17,0,0,1-4.89-1.54l.21-.45Z" style="fill:#fff"></path><polygon points="389.98 323.25 391.6 329.25 389.51 323.4 389.98 323.25 389.98 323.25" style="fill:#fff"></polygon><path d="M403.38,337.45a22.86,22.86,0,0,1,5.14-2.27,22.88,22.88,0,0,0-4.87,2.69l-.27-.42Z" style="fill:#fff"></path><path d="M403.61,337.43a39.36,39.36,0,0,0,4.68,2,38.81,38.81,0,0,1-4.88-1.53l.2-.46Z" style="fill:#fff"></path><polygon points="403.75 337.59 405.36 343.58 403.27 337.74 403.75 337.59 403.75 337.59" style="fill:#fff"></polygon><path d="M386.66,306.71a23.42,23.42,0,0,1,2.11-5.21,22.63,22.63,0,0,0-1.62,5.33l-.49-.12Z" style="fill:#fff"></path><path d="M386.82,306.53a39,39,0,0,0,4.74-1.83A39.05,39.05,0,0,1,387,307l-.17-.47Z" style="fill:#fff"></path><polygon points="387.02 306.55 392.36 309.73 386.79 306.99 387.02 306.55 387.02 306.55" style="fill:#fff"></polygon><path d="M377.23,296a23.11,23.11,0,0,1,2.1-5.21,23.26,23.26,0,0,0-1.62,5.33l-.48-.12Z" style="fill:#fff"></path><path d="M377.38,295.84a39,39,0,0,0,4.74-1.84,37.62,37.62,0,0,1-4.57,2.31l-.17-.47Z" style="fill:#fff"></path><polygon points="377.59 295.85 382.92 299.03 377.35 296.29 377.59 295.85 377.59 295.85" style="fill:#fff"></polygon><path d="M404.91,313.24A23.39,23.39,0,0,1,407,308a22.61,22.61,0,0,0-1.61,5.33l-.49-.12Z" style="fill:#fff"></path><path d="M405.07,313.06a37.39,37.39,0,0,0,4.74-1.83,39.85,39.85,0,0,1-4.57,2.3l-.17-.47Z" style="fill:#fff"></path><polygon points="405.27 313.08 410.61 316.26 405.04 313.52 405.27 313.08 405.27 313.08" style="fill:#fff"></polygon><path d="M388.5,344.72a23.49,23.49,0,0,1,5.59-.62,23,23,0,0,0-5.46,1.1l-.13-.48Z" style="fill:#fff"></path><path d="M388.73,344.78a42.1,42.1,0,0,0,3.87,3.3,39,39,0,0,1-4.2-2.93l.33-.37Z" style="fill:#fff"></path><polygon points="388.82 344.96 388.56 351.17 388.32 344.96 388.82 344.96 388.82 344.96" style="fill:#fff"></polygon><path d="M395.11,297.08a23.11,23.11,0,0,1,2.1-5.21,22.75,22.75,0,0,0-1.61,5.33l-.49-.12Z" style="fill:#fff"></path><path d="M395.27,296.91a39.67,39.67,0,0,0,4.74-1.84,39.13,39.13,0,0,1-4.57,2.31l-.17-.47Z" style="fill:#fff"></path><polygon points="395.47 296.92 400.81 300.1 395.23 297.36 395.47 296.92 395.47 296.92" style="fill:#fff"></polygon><path d="M374.81,341.65a23.17,23.17,0,0,1-2.61,5,23,23,0,0,0,2.14-5.15l.47.17Z" style="fill:#fff"></path><path d="M374.63,341.81a38.1,38.1,0,0,0-4.89,1.35,39.83,39.83,0,0,1,4.77-1.84l.12.49Z" style="fill:#fff"></path><polygon points="374.43 341.77 369.43 338.08 374.71 341.36 374.43 341.77 374.43 341.77" style="fill:#fff"></polygon><path d="M356.91,295.62a23.5,23.5,0,0,1-4.58-3.26,23.19,23.19,0,0,0,4.81,2.81l-.23.45Z" style="fill:#fff"></path><path d="M356.78,295.43a39.11,39.11,0,0,0-.68-5,37.94,37.94,0,0,1,1.17,5l-.49.06Z" style="fill:#fff"></path><polygon points="356.84 295.23 361.18 290.78 357.21 295.56 356.84 295.23 356.84 295.23" style="fill:#fff"></polygon><path d="M346.93,337.21a22.9,22.9,0,0,1-.42,5.61,23.06,23.06,0,0,0-.07-5.57l.49,0Z" style="fill:#fff"></path><path d="M346.84,337.43a38.82,38.82,0,0,0-4,3.18,39.83,39.83,0,0,1,3.65-3.58l.31.4Z" style="fill:#fff"></path><polygon points="346.64 337.48 340.59 336.06 346.73 336.98 346.64 337.48 346.64 337.48" style="fill:#fff"></polygon></g></svg>
