<svg xmlns="http://www.w3.org/2000/svg" viewBox="0 0 500 500"><g id="freepik--cactus-1--inject-2"><path d="M147,258.36c-.57.28-6.27,1.42-14.64-8.47a165.55,165.55,0,0,1-14.64-20.64l-2.59,1.89c-.79,1,8.87,13.62,13.62,21S144,264.53,144,264.53,147.59,258.07,147,258.36Z" style="fill:#FFC0AD"></path><path d="M276.05,237.06s25.17-1.87,34.71-19.07l3.64,1.26s-17.24,19.69-37.25,21.25Z" style="fill:#FFC0AD"></path><path d="M305.05,171.11c5,6.82,9.33,18,11.5,26.16s.86,17.79-5.43,23.41h2.46c13.64-10.09,18.76-34,27.77-48.38C352.67,150.36,317.87,174.41,305.05,171.11Z" style="fill:#FFC0AD"></path><g style="opacity:0.2"><path d="M305.05,171.11c5,6.82,9.33,18,11.5,26.16s.86,17.79-5.43,23.41h2.46c13.64-10.09,18.76-34,27.77-48.38C352.67,150.36,317.87,174.41,305.05,171.11Z"></path></g><path d="M379.44,86.31c-10.52,3.62-23.15,1.78-31.9,8.65-5.26,4.12-8,10.62-10.06,17-3.11,9.55-5.1,20.3-.82,29.39l2.94,2.22c2.23-7.8,8.17-14,14.45-19.1s13.18-9.63,18.48-15.77S381.4,94.18,379.44,86.31Z" style="fill:#FFC0AD"></path><g style="opacity:0.2"><path d="M379.44,86.31c-10.52,3.62-23.15,1.78-31.9,8.65-5.26,4.12-8,10.62-10.06,17-3.11,9.55-5.1,20.3-.82,29.39l2.94,2.22c2.23-7.8,8.17-14,14.45-19.1s13.18-9.63,18.48-15.77S381.4,94.18,379.44,86.31Z"></path></g><path d="M369,155.06c-4.61-5.53-11.47-8.85-18.53-10.27a24.1,24.1,0,0,0-11.39.05A12.77,12.77,0,0,0,330.6,152l4.57,6.36A38,38,0,0,0,361.33,172c4.18.31,9,.16,11.79,3.26C375.62,168.52,373.61,160.6,369,155.06Z" style="fill:#FFC0AD"></path><g style="opacity:0.2"><path d="M369,155.06c-4.61-5.53-11.47-8.85-18.53-10.27a24.1,24.1,0,0,0-11.39.05A12.77,12.77,0,0,0,330.6,152l4.57,6.36A38,38,0,0,0,361.33,172c4.18.31,9,.16,11.79,3.26C375.62,168.52,373.61,160.6,369,155.06Z"></path></g><path d="M296.52,113c1.11-5.8-2.38-11.77-7.29-15s-11-4.35-16.87-4.74S260.51,93,254.7,91.91a42,42,0,0,0,37.71,36.84c2.14.21,4.42.22,6.28-.85Z" style="fill:#FFC0AD"></path><g style="opacity:0.2"><path d="M296.52,113c1.11-5.8-2.38-11.77-7.29-15s-11-4.35-16.87-4.74S260.51,93,254.7,91.91a42,42,0,0,0,37.71,36.84c2.14.21,4.42.22,6.28-.85Z"></path></g><path d="M313.68,165.42c-1.38,4.5-4.72,8.2-8.58,10.88s-8.28,4.46-12.64,6.22l-13.19,5.32a2,2,0,0,1-1.47.17,1.91,1.91,0,0,1-.83-1,40,40,0,0,1-1.84-28.51,48.2,48.2,0,0,1,24.74-22.85c17.8-7.1,29.49,0,29.49,0Z" style="fill:#FFC0AD"></path><g style="opacity:0.2"><path d="M313.68,165.42c-1.38,4.5-4.72,8.2-8.58,10.88s-8.28,4.46-12.64,6.22l-13.19,5.32a2,2,0,0,1-1.47.17,1.91,1.91,0,0,1-.83-1,40,40,0,0,1-1.84-28.51,48.2,48.2,0,0,1,24.74-22.85c17.8-7.1,29.49,0,29.49,0Z"></path></g><path d="M321.13,141.46c-8.82-4.58-19.29-6.51-28.92-9-5.4-1.39-11.29-2.4-16.43-.23-6.08,2.58-9.55,8.9-12.56,14.78l-10.88,21.26c10.91,1.28,22.67.55,31.78-5.6,4.1-2.77,7.44-6.49,10.88-10s7.09-7,11.55-9.16,8,.37,14.34-2" style="fill:#FFC0AD"></path><path d="M379.64,139.67c-1.75-6.21-4.33-12.61-9.56-16.39s-12.18-4.24-18.61-3.56a37.39,37.39,0,0,0-14.79,4.33c-4.48,2.58-9.86,6.73-11.31,11.7a14.24,14.24,0,0,0,7.17,13.12c6.29,3.47,14,1.64,21.2,1.45,11.14-.29,21.91,3.63,32.36,7.49C382.61,152.39,381.38,145.87,379.64,139.67Z" style="fill:#FFC0AD"></path><path d="M340.62,79.55c-2.64-3.93-6.11-7.23-9.55-10.49-6.58,4.33-12.45,10.16-15.33,17.49s-2.33,16.29,2.68,22.36l5.33,5.54c4.84-2.08,9.65-4.46,13.58-8s6.95-8.32,7.34-13.58C345,88.18,343.25,83.49,340.62,79.55Z" style="fill:#FFC0AD"></path><g style="opacity:0.2"><path d="M340.62,79.55c-2.64-3.93-6.11-7.23-9.55-10.49-6.58,4.33-12.45,10.16-15.33,17.49s-2.33,16.29,2.68,22.36l5.33,5.54c4.84-2.08,9.65-4.46,13.58-8s6.95-8.32,7.34-13.58C345,88.18,343.25,83.49,340.62,79.55Z"></path></g><path d="M303.52,211.85c-5.71,6.14-7.84,14.23-8.67,20.87l6.5-3.47C303.58,224.66,305.09,216.49,303.52,211.85Z" style="fill:#FFC0AD"></path><path d="M326.69,94.81c-3.87-9.12-11.66-15.89-19.2-22.32-1-.88-2.26-1.82-3.6-1.61s-2.24,1.54-2.94,2.74c-5.08,8.68-10.31,17.84-10.55,27.9A34.35,34.35,0,0,0,298,123.25a47.36,47.36,0,0,0,18.69,13.84l2.06-.41a50.07,50.07,0,0,0,9.67-19.94A36.71,36.71,0,0,0,326.69,94.81Z" style="fill:#FFC0AD"></path><path d="M364,96.8a39.81,39.81,0,0,0-28.16,6.94l.64-.45c-12.55,7.08-17.08,22.95-14.8,37.18,3-5.36,8.76-8.73,14.69-10.36s12.16-1.74,18.31-2.09,12.4-1,18-3.52c6.54-3,11.65-8.27,16.6-13.47A39.87,39.87,0,0,0,364,96.8Z" style="fill:#FFC0AD"></path><path d="M282.39,111.7c-8.07-.44-16.11,2.44-22.71,7.1s-11.87,11-16.2,17.82c4.33,2.32,17.2,3.74,21.87,2.23l51.38-1.76C312.37,130.28,290.46,112.14,282.39,111.7Z" style="fill:#FFC0AD"></path><path d="M311.09,129c-16.21-9.47-36-4.89-52.33,2l0-.09c15.36-8.72,37.07-11.87,52.37-2Z" style="opacity:0.2"></path><path d="M318.44,215.67l-15.21,12c11.63-3,26.25-8.21,37.89-11.19,3.35-.85,6.82-1.77,9.46-4C340.91,209.73,327.27,210.85,318.44,215.67Z" style="fill:#FFC0AD"></path><path d="M307.85,193.63c-3.43,2.55.25,13.09.08,19.63-.14,5.1-1.24,10.65-4.7,14.38l11.17-8.39A24.27,24.27,0,0,0,307.85,193.63Z" style="fill:#FFC0AD"></path><path d="M294.46,232.93a26.16,26.16,0,0,0,12.28-.25,78.68,78.68,0,0,0,11.68-4.13,60.87,60.87,0,0,0-22,2.3" style="fill:#FFC0AD"></path><g style="opacity:0.30000000000000004"><path d="M297.51,145.44c-2.6,4-2.79,9.24-1.15,13.71s6.43,8.18,10.23,11A30.25,30.25,0,0,1,302,154.68c-.13-2.76-1-5-.05-7.19a14.64,14.64,0,0,1,4.1-6.16c.62-.62,1.33-1.5,2-2.09s3.3-2.73,3.3-2.73C306.76,138.11,300.14,141.4,297.51,145.44Z"></path></g><g style="opacity:0.30000000000000004"><path d="M330.6,133.16c4.67.11,8.95,3.2,11.23,7.26A21.63,21.63,0,0,1,343.94,154c-.64,4.62-2.93,9-4.76,13.31,3.61-3.1,7.3-6.92,9-11.38a18.5,18.5,0,0,0,0-13.93,15.52,15.52,0,0,0-17.31-8.91"></path></g><path d="M321,129c9.17-12.92,24-22.67,40.06-23.72v.1c-15.85,3-30.23,10.93-40.07,23.62Z" style="opacity:0.2"></path><path d="M322.88,130.19c16.43-4.47,35.59-1.45,48.7,9.81l-.06.08c-14.22-9.69-31.93-13.74-48.64-9.89Z" style="opacity:0.2"></path><path d="M314.37,130.19c-17.22-2.07-33.5,7.55-41.88,22.36l-.09,0c6.55-15.88,25.5-25.25,42-22.32Z" style="opacity:0.2"></path><path d="M327.58,130.07a72,72,0,0,0,9.57-5.85c-4.68-1.24-9.61.47-13.95,2.59A27.31,27.31,0,0,0,327.53,116a24.54,24.54,0,0,0-5.34,3.89,8.31,8.31,0,0,0-2.53,5.93,17.56,17.56,0,0,0-11.69-11,46,46,0,0,0,5.26,13.58A24.28,24.28,0,0,0,298.68,125a33.59,33.59,0,0,0,12.69,8.23,22.11,22.11,0,0,0-5,3.69,7.43,7.43,0,0,0-2.19,5.66,18.5,18.5,0,0,1,9.78-7.5l1.54.07a39.7,39.7,0,0,1,24.6.38A15.22,15.22,0,0,0,327.58,130.07Z" style="fill:#fff"></path><path d="M316.57,133.19a20.38,20.38,0,0,0-15.76,16.18c-1.28,7.57,1.92,15.24,6.28,21.56S317,182.69,321.32,189c5.82-5.9,11.69-11.85,16.14-18.84s7.46-15.17,6.93-23.44c-.25-3.9-1.37-7.9-4-10.76-3.18-3.41-8.15-4.68-12.8-4.42s-7.82.32-12.21,1.91" style="fill:#FFC0AD"></path><path d="M318.88,132.64C328,143.9,331.31,160.72,325,174.1l-.09,0c4.46-14,2.63-29.56-6-41.43Z" style="opacity:0.2"></path><path d="M322.52,130.11l-5.58,2.79a8.22,8.22,0,0,1,4.3,3.63,23.65,23.65,0,0,1,2.23,5.28A10.28,10.28,0,0,0,322.52,130.11Z" style="fill:#fff"></path><path d="M305.89,87.26c2.16,5.47,4.36,10.93,6.41,16.45s4.23,11.33,4.93,17c-2.08-5.52-3.88-11.09-5.68-16.7.08,0-6-16.83-5.66-16.72Z" style="opacity:0.2"></path><path d="M121.31,224c.62-5.53,1.56-11.06,1.22-16.61s-2.12-11.25-6.14-15.08c-5.75,6-7.25,15.16-5.81,23.36s5.44,15.7,9.55,22.94L122,240.5C120.4,235.18,120.69,229.48,121.31,224Z" style="fill:#FFC0AD"></path><path d="M105.37,210.48a22,22,0,0,0,.47,3.6C105.71,212.88,105.54,211.68,105.37,210.48Z" style="fill:#e87a75"></path><path d="M109.26,152.61c-3.91-6.61-9.29-12.22-14.94-17.42-3.47,6.73-7,13.57-8.44,21s-.57,15.66,4.06,21.65l12.72,19.24a120,120,0,0,1,2.71,13.4c-.31-5.54,1.34-11.16,3.36-16.4,2.46-6.38,5.46-12.7,6.1-19.51C115.55,166.93,113.17,159.22,109.26,152.61Z" style="fill:#FFC0AD"></path><path d="M111.44,216.11a136.5,136.5,0,0,1-1.52-26.1,25.55,25.55,0,0,0-10.16,5.83,7.59,7.59,0,0,0-2.32,3.32,7.78,7.78,0,0,0,1.21,6.07c6.72,10.78,11.4,17.58,17,25.91Z" style="fill:#FFC0AD"></path><g style="opacity:0.1"><path d="M105.37,210.48a22,22,0,0,0,.47,3.6C105.71,212.88,105.54,211.68,105.37,210.48Z"></path><path d="M109.26,152.61c-3.91-6.61-9.29-12.22-14.94-17.42-3.47,6.73-7,13.57-8.44,21s-.57,15.66,4.06,21.65l12.72,19.24a120,120,0,0,1,2.71,13.4c-.31-5.54,1.34-11.16,3.36-16.4,2.46-6.38,5.46-12.7,6.1-19.51C115.55,166.93,113.17,159.22,109.26,152.61Z"></path><path d="M111.44,216.11a136.5,136.5,0,0,1-1.52-26.1,25.55,25.55,0,0,0-10.16,5.83,7.59,7.59,0,0,0-2.32,3.32,7.78,7.78,0,0,0,1.21,6.07c6.72,10.78,11.4,17.58,17,25.91Z"></path></g><path d="M79,167.11c.77,9.36,4.84,18.22,10.22,25.92,4.87,7,14.79,22.43,20.8,28.45-1.85-9-7.87-27.45-12.65-35.26C92.76,178.65,85.84,172.81,79,167.11Z" style="fill:#FFC0AD"></path><path d="M120,236.64c-6.19-5.95-14.4-9.25-21.62-13.9s-14-11.68-14.16-20.27c7.95,14.1,26.44,19.23,35.34,32.75" style="fill:#FFC0AD"></path><path d="M187.49,446.6A80,80,0,0,0,162,393.88c1.68-7.13.42-19.19-4.57-27.87s-7.92-15.1-16-21c9.3-19.52,6.59-44.21-6.73-61.24-1.46-1.86-3.09-3.75-3.52-6.08-.8-4.3,2.64-8.07,5.47-11.4,10.07-11.86,9.69-47.29,8.37-62.8l13.18-14.28s13,2.14,35.77-14.75c0,0-1.57,4.94,31.78-4,0,0,15.21,12.16,25.18,19.39,9.49,6.88,31.35,20.66,31.35,20.66s-1.78,30,9.94,45.48l1.12,6.79s-25.28,58.05-13.05,85.68l-1,6.13s-17.66,13-14.35,49.86c0,0-16,22.34-19.19,42Z" style="fill:#263238"></path><g style="opacity:0.1"><path d="M198.72,446.57c9.76-23,1.65-48.46-17.29-64.78a47.67,47.67,0,0,0-7.54-67.94c-2.38-1.86-5.19-3.89-5.42-6.91-.2-2.64,1.7-4.91,3.33-7a51.94,51.94,0,0,0-8.19-72.26c20.95-11.26,34.78-28.2,36.16-51.94l9.06-1.28,6.88,272.2Z"></path></g><g style="opacity:0.1"><path d="M234.7,446.48c-11.58-21.76-6.19-48.75,11.39-66.25a46.3,46.3,0,0,1,2.07-67.16c2.23-2,4.87-4.22,4.85-7.19,0-2.61-2.08-4.68-3.87-6.6a50.42,50.42,0,0,1,2.37-71.43c-21.78-9.35-27-33-30.25-56.19l4.52-1.18c3.28,23.14,25.53,35.85,42.82,52-9.71,9.13-12.79,27.49-13.23,40.67s2.06,24.58,11.14,34.29c1.79,1.91,3.86,4,3.87,6.59,0,3-2.62,5.19-4.85,7.2-9.37,8.44-15.26,22.87-15.65,35.35s2.15,24.27,11,33.23c-17.58,17.5-31.58,45.1-20,66.87Z"></path></g><g style="opacity:0.1"><path d="M187.49,446.6h2.26c4.3-8.48,2.05-19.28-2-28.1-4.44-9.55-10.83-18.4-12.9-28.73-1.61-8-.5-16.48-2.68-24.37A170,170,0,0,0,162,339c-4.83-10.46-13.45-32.67-13-34.48,3.85-15.86,6.18-46.55,3.17-77.2-.5-5.09,14.11-21.69,14.11-21.69,5.84-7.63,12.53-18.62,13.6-22.31-14,7.15-21.68,5.89-21.68,5.89l-13.18,14.28c1.32,15.51,1.7,50.94-8.37,62.8-2.83,3.33-6.27,7.1-5.47,11.4.43,2.33,2.06,4.22,3.52,6.08,13.32,17,16,41.72,6.73,61.24,8.07,5.93,11,12.36,16,21s6.25,20.74,4.57,27.87A80,80,0,0,1,187.49,446.6Z"></path></g><path d="M166,227.93a97.43,97.43,0,0,1-14.69,3.77A97,97,0,0,0,165.6,227l.35.94Z" style="fill:#fff"></path><polygon points="166.2 227.74 152.82 219.56 166.69 226.87 166.2 227.74 166.2 227.74" style="fill:#fff"></polygon><path d="M165.71,227.37a45.4,45.4,0,0,1-4.1-13.09,44.62,44.62,0,0,0,5,12.62l-.88.47Z" style="fill:#fff"></path><path d="M193.33,176.33a119.94,119.94,0,0,1-15-11.32,121,121,0,0,0,15.5,10.46l-.51.86Z" style="fill:#263238"></path><polygon points="193.76 176.51 191.36 157.23 194.75 176.36 193.76 176.51 193.76 176.51" style="fill:#263238"></polygon><path d="M193.73,175.82a55.77,55.77,0,0,1,9.5-14.06,55.15,55.15,0,0,0-8.58,14.46l-.92-.4Z" style="fill:#263238"></path><path d="M168.91,307.91a98.9,98.9,0,0,1-10.55,10.91,98,98,0,0,0,9.75-11.52l.8.61Z" style="fill:#fff"></path><polygon points="169.01 307.62 153.33 307.65 168.98 306.62 169.01 307.62 169.01 307.62" style="fill:#fff"></polygon><path d="M168.41,307.56a44.82,44.82,0,0,1-10.34-9,44.5,44.5,0,0,0,10.84,8.15l-.5.86Z" style="fill:#fff"></path><path d="M131.91,278.51a98,98,0,0,1-10.55,10.91,96.36,96.36,0,0,0,9.76-11.52l.79.61Z" style="fill:#263238"></path><polygon points="132.02 278.22 116.34 278.25 131.99 277.22 132.02 278.22 132.02 278.22" style="fill:#263238"></polygon><path d="M131.41,278.17a45.1,45.1,0,0,1-10.34-9,44.55,44.55,0,0,0,10.85,8.15l-.51.87Z" style="fill:#263238"></path><path d="M280.48,209.8a98.63,98.63,0,0,1,0-15.18,97.07,97.07,0,0,0,1,15.06l-1,.12Z" style="fill:#263238"></path><polygon points="280.61 210.08 291.83 199.13 281.33 210.78 280.61 210.08 280.61 210.08" style="fill:#263238"></polygon><path d="M281.08,209.7a45.12,45.12,0,0,1,13.7-.75,44.52,44.52,0,0,0-13.46,1.72l-.24-1Z" style="fill:#263238"></path><path d="M291.41,257.57a97,97,0,0,1,7.1-13.41,97,97,0,0,0-6.17,13.78l-.93-.37Z" style="fill:#263238"></path><polygon points="291.38 257.88 306.44 253.49 291.69 258.83 291.38 257.88 291.38 257.88" style="fill:#263238"></polygon><path d="M292,257.77a44.81,44.81,0,0,1,12.44,5.78,44.31,44.31,0,0,0-12.69-4.81l.25-1Z" style="fill:#263238"></path><path d="M278.42,350.15a99.27,99.27,0,0,1,15-2.2,98.13,98.13,0,0,0-14.76,3.17l-.26-1Z" style="fill:#263238"></path><polygon points="278.16 350.32 290.6 359.87 277.58 351.13 278.16 350.32 278.16 350.32" style="fill:#263238"></polygon><path d="M278.61,350.73a45.49,45.49,0,0,1,2.69,13.45,44.86,44.86,0,0,0-3.62-13.07l.93-.38Z" style="fill:#263238"></path><path d="M252.6,305.47a96.49,96.49,0,0,1,13.14-7.58,97.27,97.27,0,0,0-12.55,8.39l-.59-.81Z" style="fill:#fff"></path><polygon points="252.41 305.72 267.5 310.01 252.17 306.69 252.41 305.72 252.41 305.72" style="fill:#fff"></polygon><path d="M253,305.94a45.27,45.27,0,0,1,7.46,11.51,44.56,44.56,0,0,0-8.18-10.82l.72-.69Z" style="fill:#fff"></path><path d="M245.41,379a97.54,97.54,0,0,1,13.14-7.58A97.27,97.27,0,0,0,246,379.84l-.59-.81Z" style="fill:#fff"></path><polygon points="245.22 379.28 260.31 383.57 244.98 380.25 245.22 379.28 245.22 379.28" style="fill:#fff"></polygon><path d="M245.79,379.5A45.27,45.27,0,0,1,253.25,391a44.73,44.73,0,0,0-8.19-10.82l.73-.69Z" style="fill:#fff"></path><path d="M247.81,226.91A98.16,98.16,0,0,1,261,219.33a97.27,97.27,0,0,0-12.55,8.39l-.59-.81Z" style="fill:#fff"></path><polygon points="247.62 227.16 262.71 231.45 247.38 228.13 247.62 227.16 247.62 227.16" style="fill:#fff"></polygon><path d="M248.19,227.38a45.27,45.27,0,0,1,7.46,11.51,44.7,44.7,0,0,0-8.18-10.81l.72-.7Z" style="fill:#fff"></path><path d="M222,173.07a97.67,97.67,0,0,1-8.68-12.45,97.64,97.64,0,0,0,9.43,11.79l-.75.66Z" style="fill:#263238"></path><polygon points="222.3 173.23 225.27 157.83 223.28 173.39 222.3 173.23 222.3 173.23" style="fill:#263238"></polygon><path d="M222.47,172.65a45.15,45.15,0,0,1,10.82-8.43,44.77,44.77,0,0,0-10.07,9.09l-.75-.66Z" style="fill:#263238"></path><path d="M264.1,404.32a96.68,96.68,0,0,1,15-2.2,97.41,97.41,0,0,0-14.76,3.16l-.25-1Z" style="fill:#263238"></path><polygon points="263.83 404.48 276.27 414.03 263.25 405.29 263.83 404.48 263.83 404.48" style="fill:#263238"></polygon><path d="M264.28,404.89A45.24,45.24,0,0,1,267,418.35a44.31,44.31,0,0,0-3.62-13.08l.93-.38Z" style="fill:#263238"></path><path d="M143.13,345.71a98.24,98.24,0,0,1-6.61,13.66,96.75,96.75,0,0,0,5.67-14l.94.34Z" style="fill:#263238"></path><polygon points="143.14 345.39 128.26 350.34 142.8 344.46 143.14 345.39 143.14 345.39" style="fill:#263238"></polygon><path d="M142.55,345.53a45.12,45.12,0,0,1-12.65-5.32,44.6,44.6,0,0,0,12.86,4.34l-.21,1Z" style="fill:#263238"></path><path d="M163.79,394.51a97.11,97.11,0,0,1-6.6,13.66,97.73,97.73,0,0,0,5.66-14l.94.33Z" style="fill:#FFC0AD"></path><polygon points="163.81 394.2 148.92 399.14 163.46 393.26 163.81 394.2 163.81 394.2" style="fill:#FFC0AD"></polygon><path d="M163.21,394.34A45.18,45.18,0,0,1,150.57,389a44.44,44.44,0,0,0,12.85,4.34l-.21,1Z" style="fill:#FFC0AD"></path><path d="M182.55,382.88A97.11,97.11,0,0,1,172,393.79a97.15,97.15,0,0,0,9.76-11.52l.79.61Z" style="fill:#fff"></path><polygon points="182.66 382.59 166.98 382.62 182.63 381.59 182.66 382.59 182.66 382.59" style="fill:#fff"></polygon><path d="M182.06,382.53a45.11,45.11,0,0,1-10.35-9,44.55,44.55,0,0,0,10.85,8.15l-.5.86Z" style="fill:#fff"></path><g style="opacity:0.2"><path d="M231.13,303.25c.52,3.36,1.62,6.75,1,10.09-.48,2.61-2,5.11-2.62,7.62a2.3,2.3,0,0,0,3.6,2.39,12.88,12.88,0,0,0,2.93-3.22c3.62-3.75,6.13-8.05,9.74-11.8,1-1,2-2.23,1.91-3.64s-1.21-2.28-2.23-3.08c-3.78-3-6.52-9.55-10.75-11.81C232.13,292,230.6,299.89,231.13,303.25Z" style="fill:#fff"></path></g><g style="opacity:0.2"><path d="M223.48,379.6c.62,3.35,1.82,6.7,1.29,10.06a37.14,37.14,0,0,0-.46,8.26c.12,2.14,2.47,5.49,4.16,4.18.86-.66,1.09-2.91,2.15-4.54,2.06-5.28,3-8.62,7.66-13.3,1-1,2-2.28,1.8-3.69s-1.6-1.92-2.32-3c-3.6-5.45-5.61-10.68-9.9-12.82C225.35,367,222.86,376.25,223.48,379.6Z" style="fill:#fff"></path></g><g style="opacity:0.2"><path d="M227.08,227.93c.51,3.36,1.58,6.76.94,10.1-.5,2.6-2,5.09-2.67,7.6a2.3,2.3,0,0,0,3.59,2.41,13.12,13.12,0,0,0,2.95-3.2c3.63-3.73,6.18-8,9.81-11.74,1-1,2.05-2.21,1.94-3.62s-1.26-2.21-2.22-3.1c-3.77-3.52-7.56-8.2-11.78-10.49C227.05,218.09,226.58,224.56,227.08,227.93Z" style="fill:#fff"></path></g><path d="M371.55,124.47c-8.63-6.17-20.14-4.75-29.77-1.94-1.41.45-2.81.94-4.24,1.36,1.34-.63,2.72-1.21,4.08-1.83,9.47-3.6,21.88-5,29.93,2.41Z" style="opacity:0.2"></path></g></svg>
